<?xml version="1.0" encoding="utf-8"?>
<!-- Generator: Adobe Illustrator 27.9.1, SVG Export Plug-In . SVG Version: 6.00 Build 0)  -->
<svg version="1.0" id="Layer_1" xmlns="http://www.w3.org/2000/svg" xmlns:xlink="http://www.w3.org/1999/xlink" x="0px" y="0px"
	 viewBox="0 0 194 194" style="enable-background:new 0 0 194 194;" xml:space="preserve">
<style type="text/css">
	.st0{fill:none;stroke:#000000;stroke-width:6;stroke-linecap:round;stroke-linejoin:round;stroke-miterlimit:10;}
</style>
<g id="path2376_2_">
	<path d="M98.9,114.1L98.9,114.1L98.9,114.1 M98.2,114.9l26,26c3.8,3.8,8.3,6.5,13.2,8l-25.3,25.3c-4,4-9.3,6.2-15,6.2
		c-5.7,0-11-2.2-15-6.2l-24.8-24.8c5.5-1.4,10.5-4.3,14.6-8.4L98.2,114.9 M98.2,108.5c-1.3,0-2.6,0.5-3.5,1.4l-26.9,26.9
		c-5,5-11.5,7.7-18.6,7.7h-5.3l34,34c5.3,5.3,12.3,7.9,19.2,7.9c7,0,13.9-2.6,19.2-7.9l34.1-34.1l-3.4,0c-7,0-13.6-2.7-18.6-7.7
		l-26.8-26.8C100.8,109,99.5,108.5,98.2,108.5L98.2,108.5z"/>
</g>
<g id="path2380_2_">
	<path d="M97,13.6c5.7,0,11,2.2,15,6.2l25.4,25.4c-4.9,1.5-9.3,4.2-13,7.9l-26.2,26L71.9,53c-4.1-4.1-9.2-7-14.7-8.4L82,19.8
		C86,15.8,91.3,13.6,97,13.6 M97,7.6c-7,0-13.9,2.6-19.2,7.9l-34,34h5.4c7,0,13.6,2.7,18.6,7.7l26.9,26.9c1,1,2.2,1.5,3.5,1.5
		c1.3,0,2.5-0.5,3.5-1.5l26.9-26.8c5-5,11.6-7.7,18.6-7.7h3.2l-34.1-34.1C110.9,10.3,103.9,7.6,97,7.6L97,7.6z"/>
</g>
<path id="path2384_2_" class="st0" d="M178.4,77.8l-20.6-20.6c-0.4,0.2-1,0.3-1.5,0.3h-9.4c-4.9,0-9.6,1.9-12.9,5.4l-26.8,26.8
	c-2.5,2.5-5.8,3.8-9.1,3.8c-3.3,0-6.6-1.3-9.1-3.8L62.2,62.8c-3.5-3.5-8.2-5.4-13-5.4H37.7c-0.5,0-1-0.1-1.4-0.3L15.6,77.8
	C5,88.4,5,105.7,15.6,116.3l20.6,20.6c0.4-0.2,0.9-0.3,1.4-0.3h11.5c4.9,0,9.6-1.9,13-5.4L89,104.3c4.9-4.9,13.4-4.9,18.2,0
	l26.8,26.8c3.4,3.4,8.2,5.4,12.9,5.4h9.4c0.5,0,1,0.1,1.5,0.3l20.6-20.6C189,105.6,189,88.4,178.4,77.8"/>
</svg>
